<?xml version="1.0" standalone="no"?>
<!DOCTYPE svg PUBLIC "-//W3C//DTD SVG 20010904//EN"
 "http://www.w3.org/TR/2001/REC-SVG-20010904/DTD/svg10.dtd">
<svg version="1.0" xmlns="http://www.w3.org/2000/svg"
 width="128.000000pt" height="128.000000pt" viewBox="0 0 128.000000 128.000000"
 preserveAspectRatio="xMidYMid meet">
<metadata>
Created by potrace 1.11, written by Peter Selinger 2001-2013
</metadata>
<g transform="translate(0.000000,128.000000) scale(0.100000,-0.100000)"
fill="#000000" stroke="none">
<path d="M494 1230 c-237 -61 -415 -257 -451 -495 -5 -32 -3 -178 2 -208 27
-145 121 -289 247 -377 78 -55 144 -83 247 -104 180 -38 388 28 527 168 80 81
116 136 150 236 107 306 -66 660 -372 765 -77 26 -84 27 -184 31 -68 2 -115
-3 -166 -16z"/>
</g>
</svg>
