<?xml version="1.0" standalone="no"?>
<!DOCTYPE svg PUBLIC "-//W3C//DTD SVG 20010904//EN"
 "http://www.w3.org/TR/2001/REC-SVG-20010904/DTD/svg10.dtd">
<svg version="1.0" xmlns="http://www.w3.org/2000/svg"
 width="512.000000pt" height="512.000000pt" viewBox="0 0 512.000000 512.000000"
 preserveAspectRatio="xMidYMid meet">
<metadata>
Created by potrace 1.11, written by Peter Selinger 2001-2013
</metadata>
<g transform="translate(0.000000,512.000000) scale(0.100000,-0.100000)"
fill="#000000" stroke="none">
<path d="M2290 5109 c-996 -108 -1847 -792 -2159 -1734 -84 -256 -119 -452
-128 -726 -14 -430 70 -824 256 -1204 254 -518 651 -916 1166 -1171 386 -190
776 -274 1214 -261 380 12 695 89 1037 256 765 375 1276 1074 1411 1931 28
177 25 588 -5 764 -47 271 -114 482 -231 722 -253 515 -650 915 -1166 1170
-246 121 -476 194 -762 240 -117 18 -508 27 -633 13z m544 -134 c447 -52 876
-231 1237 -515 106 -83 285 -261 372 -370 230 -286 402 -644 481 -1001 44
-197 59 -368 53 -594 -10 -366 -79 -655 -236 -980 -239 -496 -617 -878 -1111
-1124 -362 -180 -728 -259 -1145 -248 -367 10 -664 82 -990 241 -494 241 -874
620 -1115 1111 -118 239 -185 451 -227 717 -25 161 -25 548 0 707 110 693 490
1288 1072 1676 125 83 386 212 525 260 180 62 397 108 600 128 99 10 370 5
484 -8z"/>
<path d="M2615 4843 c-39 -99 -155 -416 -155 -423 0 -6 24 -10 53 -10 l53 0
18 55 17 55 42 -1 c61 -1 91 -12 95 -34 2 -11 8 -37 13 -57 l10 -38 54 0 c30
0 55 2 55 4 0 31 -112 451 -121 457 -8 5 -39 9 -70 9 -45 0 -58 -4 -64 -17z
m100 -230 c5 -20 2 -21 -38 -16 -23 3 -44 7 -46 9 -3 3 37 131 47 148 3 6 11
-19 18 -55 8 -35 16 -74 19 -86z"/>
<path d="M1928 4783 c-53 -18 -58 -28 -58 -118 -1 -112 -4 -114 -78 -29 -36
41 -71 73 -78 70 -7 -3 -30 -10 -53 -17 -23 -7 -41 -16 -41 -20 0 -4 48 -52
108 -107 107 -100 107 -101 136 -187 27 -79 31 -86 52 -81 44 11 74 26 74 35
0 5 -13 46 -29 91 l-28 81 23 127 c13 70 26 137 29 150 6 25 6 25 -57 5z"/>
<path d="M3076 4578 c-38 -112 -71 -208 -73 -213 -2 -6 19 -18 46 -27 l49 -16
30 82 c32 86 44 95 85 58 15 -14 18 -30 17 -92 -1 -41 -2 -80 -1 -86 1 -10 64
-34 88 -34 17 0 24 158 9 195 -14 32 -13 34 8 39 69 17 111 101 83 162 -28 57
-121 108 -237 129 l-35 6 -69 -203z m214 73 c34 -25 34 -67 -1 -93 -23 -17
-31 -18 -66 -8 l-41 13 20 59 c22 64 33 68 88 29z"/>
<path d="M3613 4443 c-146 -226 -164 -255 -161 -264 2 -4 55 -42 118 -84 l115
-75 22 28 c13 15 23 32 23 38 0 6 -34 33 -75 61 l-75 49 27 40 c14 21 27 41
29 43 2 2 15 -6 31 -16 15 -11 47 -32 70 -46 l42 -26 20 33 c12 18 21 36 21
39 0 2 -29 24 -65 47 -36 23 -65 45 -65 47 0 3 9 21 21 39 23 38 22 39 118
-25 52 -34 53 -35 68 -16 39 53 41 50 -82 130 -64 41 -118 75 -120 75 -3 0
-40 -53 -82 -117z"/>
<path d="M1310 4500 c-25 -16 -49 -31 -54 -33 -12 -4 115 -457 128 -457 6 0
28 11 48 25 l36 25 -17 58 -18 59 54 32 54 33 36 -29 c19 -15 41 -32 48 -37 9
-7 28 0 59 20 l46 30 -180 152 c-99 84 -184 152 -188 152 -4 0 -27 -14 -52
-30z m170 -196 c0 -2 -17 -15 -37 -29 l-38 -25 -27 83 c-15 45 -28 83 -28 85
0 2 29 -23 65 -54 36 -32 65 -59 65 -60z"/>
<path d="M2386 4269 c-511 -54 -969 -328 -1251 -749 -529 -789 -317 -1854 473
-2380 508 -338 1158 -380 1703 -111 414 205 722 558 869 999 244 729 -34 1534
-678 1962 -329 219 -732 320 -1116 279z m315 -110 c132 -13 229 -33 349 -71
793 -253 1264 -1099 1060 -1904 -74 -296 -197 -517 -404 -733 -471 -489 -1206
-626 -1824 -340 -602 278 -981 924 -923 1575 36 404 186 731 465 1010 342 341
809 511 1277 463z"/>
<path d="M2285 3935 c-113 -25 -238 -77 -295 -123 l-25 -20 19 -55 c28 -83 23
-81 111 -46 98 39 210 50 268 26 54 -23 71 -68 64 -171 -5 -74 -4 -80 19 -101
24 -22 24 -23 24 -239 0 -119 -3 -216 -7 -216 -5 0 -34 20 -65 45 -62 50 -108
127 -108 181 0 24 8 38 34 58 62 47 94 152 65 209 -6 12 -20 32 -31 43 -19 21
-19 22 16 55 37 35 35 60 -3 40 -18 -10 -21 -9 -21 9 0 11 -4 20 -10 20 -5 0
-10 -10 -10 -22 0 -56 -10 -68 -54 -68 -34 0 -48 -6 -73 -32 -31 -32 -72 -110
-73 -136 0 -7 -10 -34 -22 -60 -16 -34 -22 -66 -23 -117 0 -123 73 -240 218
-349 l65 -49 -30 -54 c-58 -102 -47 -224 30 -333 l38 -55 -32 -42 c-37 -48
-74 -140 -74 -182 0 -45 27 -124 61 -175 l32 -47 -26 -27 c-45 -49 -61 -92
-61 -162 1 -79 26 -141 84 -203 33 -37 40 -50 34 -71 -8 -33 15 -102 77 -234
29 -62 53 -101 59 -97 15 9 115 211 130 263 10 33 11 48 1 68 -11 24 -8 30 28
69 104 113 116 246 33 361 l-29 40 28 35 c35 41 69 127 69 173 0 55 -28 128
-68 182 l-39 50 37 62 c69 114 73 236 11 334 l-28 45 46 29 c75 47 186 164
222 235 46 93 50 170 14 286 -33 108 -54 150 -94 187 -32 30 -80 38 -105 17
-18 -15 -26 -3 -26 41 0 27 -4 38 -15 38 -9 0 -15 -9 -15 -21 0 -18 -2 -19
-15 -9 -11 9 -19 10 -26 3 -8 -8 0 -21 26 -45 l37 -34 -21 -34 c-24 -41 -28
-108 -7 -148 8 -15 28 -40 45 -56 26 -25 31 -37 31 -77 0 -57 -35 -108 -120
-178 l-55 -44 -3 218 c-2 211 -2 219 19 241 20 21 21 30 14 98 -6 67 -5 76 14
95 17 17 33 21 89 21 104 0 240 -41 520 -157 9 -4 12 16 12 82 l0 86 -82 38
c-213 98 -492 185 -671 210 -102 14 -207 13 -282 -4z m407 -79 c132 -31 308
-89 456 -152 97 -41 112 -51 112 -71 0 -13 -2 -23 -4 -23 -2 0 -36 14 -77 31
-200 82 -417 121 -484 86 -60 -30 -70 -51 -69 -138 l2 -79 -69 0 -69 0 0 68
c-1 109 -41 174 -127 203 -50 16 -174 6 -248 -20 -73 -26 -75 -26 -75 -1 0 29
124 88 245 116 87 20 272 11 407 -20z m195 -348 c11 -13 26 -34 33 -47 27 -53
60 -179 60 -232 0 -107 -90 -235 -233 -334 -65 -44 -90 -41 -95 11 -2 25 4 34
48 63 65 44 157 141 175 185 8 20 15 61 15 92 0 54 -2 59 -40 91 -44 38 -62
84 -48 123 10 26 46 70 58 70 4 0 16 -10 27 -22z m-563 -30 c34 -47 8 -133
-49 -168 -38 -24 -45 -37 -45 -89 0 -112 95 -229 254 -312 220 -116 285 -202
256 -342 -13 -65 -66 -155 -82 -139 -6 6 -8 32 -4 64 19 173 19 171 -6 208
-14 21 -55 54 -103 82 -157 92 -218 134 -279 193 -107 106 -149 221 -111 310
9 22 25 68 36 101 10 34 28 73 40 88 26 33 71 35 93 4z m266 -293 l0 -266 -30
16 -30 16 0 249 0 250 30 0 30 0 0 -265z m-136 -418 c20 -15 19 -33 -5 -114
-12 -39 -11 -45 20 -107 22 -44 47 -78 79 -104 158 -128 219 -218 210 -312 -7
-67 -71 -168 -94 -149 -16 13 -16 14 2 159 5 39 1 51 -25 91 -17 25 -65 74
-106 108 -162 132 -212 263 -149 389 27 54 38 61 68 39z m111 -63 c24 -16 25
-20 25 -123 l-1 -106 -29 35 c-28 32 -30 39 -30 122 0 48 2 88 5 88 3 0 17 -7
30 -16z m-102 -430 c-1 -27 -4 -74 -8 -104 -7 -51 -5 -58 27 -105 20 -30 63
-70 111 -105 121 -85 167 -163 152 -255 -7 -44 -42 -110 -74 -139 l-21 -19 0
57 c0 31 5 77 11 100 9 36 8 49 -6 76 -20 39 -56 73 -110 107 -57 36 -133 112
-156 155 -25 50 -33 106 -20 154 13 50 69 136 85 131 6 -2 10 -24 9 -53z m127
-151 c0 -46 -4 -83 -9 -83 -5 0 -19 12 -30 26 -18 22 -21 41 -21 112 l0 86 30
-29 c29 -27 30 -33 30 -112z m-130 -248 c8 -10 10 -29 5 -57 -8 -51 -8 -106 1
-208 l6 -75 -30 28 c-61 58 -94 165 -72 231 12 37 55 96 70 96 4 0 13 -7 20
-15z m130 -232 l0 -133 -30 0 -30 0 0 162 0 162 30 -29 30 -29 0 -133z m50
-209 c0 -19 -78 -189 -84 -183 -7 7 -76 178 -76 188 0 7 30 11 80 11 67 0 80
-3 80 -16z"/>
<path d="M2847 3466 c-7 -18 20 -56 39 -56 18 0 18 20 -2 48 -17 25 -30 28
-37 8z"/>
<path d="M2232 3438 c-14 -14 -16 -58 -4 -58 14 0 42 35 42 53 0 20 -21 22
-38 5z"/>
<path d="M3392 3065 c-11 -14 -23 -42 -27 -62 -7 -41 -19 -53 -52 -53 -12 0
-32 -13 -45 -30 l-24 -31 -45 20 c-58 26 -140 37 -168 22 -35 -19 -26 -54 35
-125 31 -36 54 -72 51 -80 -3 -8 -29 -16 -65 -20 -74 -8 -97 -24 -88 -59 10
-41 52 -83 106 -106 27 -12 50 -23 50 -26 0 -2 -25 -32 -55 -67 -30 -34 -55
-72 -55 -84 0 -11 11 -31 25 -44 21 -20 31 -22 75 -17 42 5 52 3 57 -11 3 -9
18 -28 34 -42 l28 -25 -25 -59 c-32 -75 -29 -110 10 -114 43 -5 114 26 163 71
23 21 49 37 56 34 8 -3 19 -26 26 -51 6 -26 21 -56 32 -67 18 -18 23 -19 42
-6 32 21 55 66 67 127 6 29 12 55 15 58 2 2 34 -21 72 -52 82 -68 130 -87 150
-60 18 25 17 44 -13 134 -15 44 -24 86 -21 93 4 10 31 16 89 20 90 6 156 25
171 49 28 43 -18 88 -120 118 l-43 13 40 43 c39 43 42 59 18 91 -5 7 -34 17
-64 24 -30 7 -54 16 -54 21 0 5 16 31 35 59 38 56 40 61 25 90 -9 17 -18 18
-64 13 l-54 -6 5 68 c4 57 2 73 -13 92 -17 21 -23 22 -49 12 -17 -6 -55 -38
-86 -70 -30 -33 -62 -60 -71 -60 -9 0 -26 25 -43 65 -49 115 -91 144 -133 90z
m96 -105 c36 -71 42 -92 38 -129 -5 -52 -38 -91 -82 -94 l-29 -2 -8 131 c-8
133 0 190 26 182 6 -2 31 -42 55 -88z m258 15 c10 -39 -14 -118 -48 -160 -32
-38 -124 -89 -141 -78 -26 16 35 132 114 218 47 51 66 56 75 20z m-382 -113
c5 -23 6 -45 2 -49 -11 -12 -66 50 -66 75 0 20 4 23 28 20 23 -3 28 -9 36 -46z
m-171 8 c59 -28 157 -108 156 -128 0 -9 -21 -32 -45 -50 l-46 -33 -31 18 c-18
10 -50 46 -73 81 -23 34 -53 71 -68 83 -14 11 -26 27 -26 35 0 21 82 18 133
-6z m661 -38 c6 -10 -142 -232 -160 -239 -19 -7 -94 43 -94 63 0 29 20 53 68
81 26 15 65 41 87 59 52 41 88 54 99 36z m-322 -139 c32 -29 16 -73 -27 -73
-42 0 -59 44 -29 74 20 20 33 20 56 -1z m-338 -51 c63 -35 78 -58 52 -78 -58
-43 -254 34 -233 91 11 27 123 20 181 -13z m205 11 c12 -23 -13 -73 -37 -73
-24 0 -42 19 -42 45 0 43 59 63 79 28z m515 -9 c27 -10 18 -33 -24 -59 -38
-24 -90 -32 -124 -19 -25 10 -19 22 26 54 40 29 85 38 122 24z m-420 -60 c9
-8 16 -22 16 -29 0 -21 -29 -45 -54 -45 -28 0 -46 18 -46 45 0 43 53 61 84 29z
m114 -6 c31 -31 3 -82 -40 -76 -17 2 -24 11 -26 33 -5 43 38 71 66 43z m-220
-97 c4 -37 -17 -49 -54 -33 -17 9 -24 20 -24 41 0 63 72 56 78 -8z m457 20
c109 -31 167 -54 168 -66 1 -35 -185 -71 -234 -45 -37 20 -107 79 -113 97 -4
8 -1 22 6 30 15 19 67 14 173 -16z m-586 -16 c2 -11 13 -33 24 -49 20 -28 20
-29 2 -42 -10 -8 -34 -14 -52 -14 -18 0 -56 -9 -85 -21 -53 -21 -98 -19 -98 4
0 24 71 97 119 122 53 28 84 28 90 0z m249 -17 c21 -21 14 -57 -13 -70 -22
-10 -29 -9 -47 10 -19 18 -20 25 -10 47 13 27 49 34 70 13z m183 -74 c53 -51
61 -65 84 -139 36 -118 34 -131 -15 -98 -90 60 -200 189 -200 233 0 46 10 60
42 60 22 0 44 -14 89 -56z m-259 -31 c33 -32 34 -42 8 -94 -39 -75 -154 -179
-198 -179 -35 0 17 142 105 293 10 17 59 5 85 -20z m-164 -48 c-12 -26 -51
-35 -64 -13 -9 14 23 38 53 38 20 0 22 -2 11 -25z m272 -15 c32 -32 34 -66 11
-143 -11 -38 -23 -73 -26 -75 -12 -12 -25 18 -40 90 -14 68 -14 80 -1 112 17
41 28 44 56 16z"/>
<path d="M1458 2898 l-3 -153 -152 -3 -153 -3 0 -169 0 -170 150 0 149 0 3
-152 3 -153 173 -3 172 -2 0 155 0 155 155 0 155 0 0 170 0 170 -155 0 -155 0
0 155 0 155 -170 0 -169 0 -3 -152z"/>
<path d="M925 4164 c-21 -7 -53 -27 -72 -46 -41 -38 -113 -126 -113 -137 0 -8
315 -294 329 -299 14 -5 129 127 152 175 16 32 20 55 16 85 -10 74 -92 127
-153 99 -23 -10 -24 -9 -24 33 0 76 -61 116 -135 90z m57 -119 c9 -21 7 -30
-16 -65 l-27 -40 -39 31 c-22 18 -40 35 -40 38 0 3 12 18 27 33 35 37 79 38
95 3z m142 -111 c9 -8 16 -25 16 -36 0 -26 -38 -88 -54 -88 -6 0 -29 18 -51
40 l-39 40 29 30 c32 34 74 40 99 14z"/>
<path d="M4000 4059 c-113 -54 -209 -100 -215 -102 -5 -3 8 -23 29 -45 l40
-41 51 29 52 30 24 -28 c67 -74 65 -65 30 -125 l-30 -53 39 -39 c22 -21 41
-37 43 -34 11 12 237 402 237 408 0 4 -21 27 -47 52 l-48 46 -205 -98z m143
-81 c-25 -40 -47 -74 -48 -75 -1 -2 -16 13 -34 31 l-33 34 74 40 c40 22 76 40
80 41 4 0 -13 -32 -39 -71z"/>
<path d="M623 3554 c-33 -17 -63 -66 -63 -106 0 -33 36 -87 66 -98 47 -18 92
-12 124 18 61 54 47 158 -25 188 -43 18 -62 17 -102 -2z"/>
<path d="M4360 3548 c-65 -44 -70 -126 -10 -180 85 -78 221 19 176 125 -30 72
-104 97 -166 55z"/>
<path d="M4753 3093 c-18 -2 -33 -10 -33 -17 0 -13 17 -113 25 -153 4 -19 0
-23 -32 -28 -21 -4 -45 -9 -54 -11 -13 -4 -18 11 -28 80 l-13 84 -36 -5 c-21
-3 -40 -8 -44 -12 -3 -3 0 -40 7 -81 7 -41 11 -77 9 -79 -2 -2 -21 -7 -43 -11
-46 -8 -43 -13 -61 98 l-12 73 -36 -7 c-21 -4 -40 -8 -43 -10 -7 -4 35 -261
44 -271 7 -6 435 61 443 70 8 8 -41 280 -51 282 -6 1 -25 0 -42 -2z"/>
<path d="M306 3068 c-3 -13 -6 -35 -6 -49 0 -25 2 -26 148 -49 144 -23 200
-40 132 -40 -33 0 -281 -37 -287 -43 -1 -2 -5 -21 -8 -43 l-7 -39 151 -65 c83
-36 147 -66 142 -68 -5 -2 -76 1 -157 7 -82 5 -150 9 -150 8 -1 -1 -4 -24 -5
-52 l-4 -50 220 -12 c121 -6 223 -8 226 -5 4 4 10 35 14 69 l7 62 -64 29 c-34
15 -97 41 -138 57 -92 35 -105 45 -58 45 33 0 269 38 275 44 2 2 7 33 11 70 8
62 7 67 -12 71 -32 7 -409 75 -417 75 -4 0 -9 -10 -13 -22z"/>
<path d="M4405 2544 c-3 -26 -3 -50 2 -54 4 -4 64 -13 133 -20 155 -15 195
-25 215 -53 18 -26 19 -66 1 -90 -25 -33 -69 -37 -222 -20 -79 8 -146 14 -148
12 -2 -2 -6 -25 -9 -50 -8 -56 -17 -53 173 -70 154 -14 197 -9 240 28 45 37
62 79 63 147 1 92 -38 150 -116 175 -24 8 -285 41 -320 41 -3 0 -8 -21 -12
-46z"/>
<path d="M447 2374 c-67 -21 -130 -85 -146 -148 -25 -101 25 -213 113 -256 39
-18 59 -21 119 -18 43 2 88 12 111 23 88 43 135 128 122 223 -20 147 -161 224
-319 176z m183 -109 c36 -19 50 -43 50 -89 0 -114 -242 -163 -289 -59 -17 36
-13 67 11 98 45 58 163 83 228 50z"/>
<path d="M4321 2047 c-30 -49 -53 -145 -45 -192 15 -91 78 -163 168 -190 71
-21 115 -19 173 10 71 36 109 94 134 203 11 52 4 62 -48 62 -28 0 -33 -4 -33
-22 0 -13 -11 -46 -24 -74 -24 -51 -68 -84 -113 -84 -41 0 -94 23 -128 54 -31
30 -35 39 -35 86 0 38 7 65 25 95 l24 42 -29 21 c-39 29 -45 28 -69 -11z"/>
<path d="M702 1811 c-146 -75 -197 -116 -212 -173 -12 -44 -6 -77 27 -139 37
-70 75 -94 149 -94 54 0 74 7 202 69 78 39 142 72 142 75 0 2 -11 24 -25 47
l-25 43 -141 -69 c-78 -39 -152 -70 -166 -70 -33 0 -73 42 -73 78 0 40 35 68
175 142 66 34 122 64 124 66 6 5 -30 94 -37 94 -4 -1 -67 -31 -140 -69z"/>
<path d="M4105 1603 c-94 -93 -100 -224 -13 -269 46 -24 104 -14 177 31 54 33
64 37 86 27 42 -19 33 -57 -28 -118 l-52 -52 27 -31 c33 -37 45 -34 102 30 47
51 66 95 66 151 0 55 -27 100 -75 122 -48 23 -86 16 -156 -29 -62 -39 -104
-45 -114 -15 -8 25 16 71 55 103 l30 26 -26 30 c-14 17 -29 31 -33 31 -4 0
-25 -17 -46 -37z"/>
<path d="M916 1273 l-167 -147 35 -34 34 -35 94 80 c51 44 102 90 112 102 11
11 22 21 26 21 3 0 -20 -77 -52 -172 l-58 -172 39 -40 40 -39 163 153 c90 85
164 156 166 160 1 3 -13 20 -31 38 l-33 33 -109 -103 c-60 -57 -105 -94 -100
-83 20 48 95 281 95 295 0 14 -68 90 -81 90 -3 0 -81 -66 -173 -147z"/>
<path d="M3781 1213 l-101 -98 152 -162 c84 -88 157 -161 162 -162 11 -1 200
179 204 194 1 6 -10 23 -26 38 l-28 27 -64 -65 -64 -65 -38 37 -38 37 60 61
60 61 -29 28 -30 29 -56 -52 c-31 -28 -60 -51 -64 -51 -4 0 -20 13 -35 29
l-27 28 63 61 63 61 -31 31 -31 31 -102 -98z"/>
<path d="M1415 1050 c-8 -16 -15 -33 -15 -38 0 -5 23 -21 51 -36 47 -26 49
-29 36 -49 -38 -59 -167 -287 -167 -294 0 -8 70 -53 83 -53 3 0 44 67 92 150
48 82 91 152 95 155 5 3 31 -8 59 -25 l51 -29 20 38 c15 30 17 41 7 49 -26 20
-276 162 -286 162 -6 0 -17 -13 -26 -30z"/>
<path d="M3460 972 c-35 -14 -149 -80 -168 -97 -5 -4 208 -395 214 -395 14 0
84 42 84 51 0 5 -18 41 -39 79 -42 74 -41 82 11 95 24 6 36 -1 91 -54 l64 -61
46 26 47 25 -69 70 c-44 43 -77 69 -91 69 -17 0 -21 4 -15 18 51 125 -49 224
-175 174z m88 -115 c12 -24 11 -31 -2 -52 -9 -14 -29 -31 -45 -39 l-28 -15
-28 51 -28 51 23 19 c35 29 91 21 108 -15z"/>
<path d="M1887 818 c-13 -18 -74 -107 -136 -198 l-112 -165 48 -16 c55 -19 63
-15 95 42 12 22 26 39 31 39 6 0 34 -8 64 -17 l53 -17 0 -61 0 -62 41 -12 c23
-7 47 -15 55 -18 12 -4 14 34 14 235 l0 240 -52 18 c-29 9 -58 19 -64 21 -7 2
-23 -11 -37 -29z m54 -155 c-1 -49 -4 -89 -6 -91 -5 -6 -86 21 -83 27 2 4 23
39 48 79 25 39 45 72 45 72 0 0 -2 -39 -4 -87z"/>
<path d="M2905 753 c-11 -2 -29 -6 -41 -8 -20 -4 -20 -6 -8 -117 7 -62 16
-129 19 -148 5 -33 3 -31 -35 29 -31 48 -121 174 -155 219 -1 1 -28 -1 -60 -4
l-57 -7 6 -141 c3 -78 9 -178 12 -223 l6 -83 51 0 50 0 -7 118 c-4 64 -9 140
-12 167 -4 41 -3 46 6 30 7 -11 53 -82 103 -157 l92 -138 55 6 c30 4 56 8 58
9 3 2 -35 368 -44 423 -3 17 -8 31 -12 31 -4 -1 -16 -3 -27 -6z"/>
<path d="M2284 735 c-5 -16 -44 -387 -44 -416 0 -24 5 -27 46 -34 25 -3 48 -5
50 -2 2 2 13 86 24 188 10 101 22 203 25 226 l6 41 -52 4 c-29 1 -53 -1 -55
-7z"/>
</g>
</svg>
