<?xml version="1.0" standalone="no"?>
<!DOCTYPE svg PUBLIC "-//W3C//DTD SVG 20010904//EN"
 "http://www.w3.org/TR/2001/REC-SVG-20010904/DTD/svg10.dtd">
<svg version="1.0" xmlns="http://www.w3.org/2000/svg"
 width="512.000000pt" height="512.000000pt" viewBox="0 0 512.000000 512.000000"
 preserveAspectRatio="xMidYMid meet">
<metadata>
Created by potrace 1.11, written by Peter Selinger 2001-2013
</metadata>
<g transform="translate(0.000000,512.000000) scale(0.100000,-0.100000)"
fill="#000000" stroke="none">
<path d="M2320 5113 c-407 -38 -833 -190 -1180 -421 -382 -254 -678 -592 -881
-1007 -118 -242 -194 -485 -236 -755 -25 -165 -25 -568 1 -735 68 -443 258
-879 536 -1230 154 -195 425 -435 650 -575 277 -174 633 -303 980 -357 162
-25 577 -25 738 0 555 88 1040 334 1433 726 395 396 636 869 724 1426 25 156
31 501 11 669 -42 361 -171 735 -360 1046 -197 323 -508 636 -836 840 -274
171 -633 303 -970 355 -102 16 -506 28 -610 18z m595 -147 c518 -82 995 -324
1360 -691 364 -366 598 -829 680 -1350 25 -156 31 -463 11 -629 -54 -461 -233
-893 -523 -1256 -368 -462 -924 -780 -1528 -875 -158 -25 -464 -30 -629 -11
-723 84 -1360 476 -1762 1082 -81 123 -202 366 -251 504 -50 142 -97 327 -120
480 -28 178 -25 550 6 729 117 688 496 1270 1072 1648 312 205 653 328 1049
379 135 17 496 11 635 -10z"/>
<path d="M2615 4843 c-39 -99 -155 -416 -155 -423 0 -6 24 -10 53 -10 l53 0
18 55 c16 52 19 55 50 55 76 0 95 -10 107 -54 5 -22 12 -49 15 -58 4 -14 17
-18 60 -18 30 0 54 3 54 8 -2 38 -111 446 -121 453 -8 5 -39 9 -70 9 -45 0
-58 -4 -64 -17z m85 -160 c7 -38 15 -73 17 -80 3 -8 -8 -10 -39 -6 -24 3 -45
7 -46 9 -6 4 41 144 48 144 4 0 12 -30 20 -67z"/>
<path d="M1930 4783 c-25 -9 -48 -21 -52 -27 -4 -6 -8 -42 -8 -81 0 -124 -3
-125 -78 -39 -36 41 -71 73 -78 70 -7 -3 -30 -10 -53 -17 -23 -7 -41 -16 -41
-20 0 -4 48 -52 108 -107 l107 -100 29 -87 c26 -81 29 -86 51 -81 43 11 75 25
75 34 0 4 -13 46 -28 92 l-28 84 22 120 c13 67 25 133 28 149 6 31 6 31 -54
10z"/>
<path d="M3076 4577 c-38 -111 -71 -207 -73 -212 -2 -6 19 -18 46 -27 l50 -16
16 42 c8 22 21 59 29 81 15 43 34 48 70 17 16 -15 18 -28 13 -100 -5 -92 -5
-93 74 -109 l26 -5 7 86 c5 67 3 93 -9 116 -14 28 -14 29 15 35 37 8 77 55 85
99 8 38 -9 78 -48 114 -25 24 -175 82 -212 82 -17 0 -30 -29 -89 -203z m214
74 c31 -22 37 -62 13 -83 -23 -21 -40 -24 -85 -15 l-36 8 20 60 c22 65 33 69
88 30z"/>
<path d="M3613 4443 c-146 -226 -164 -255 -161 -264 2 -4 55 -42 118 -84 l115
-75 22 28 c13 15 23 32 23 38 0 6 -34 33 -75 61 l-75 49 27 40 c14 21 27 41
29 43 2 2 15 -6 31 -16 15 -11 47 -32 70 -46 l42 -26 20 33 c12 18 21 36 21
39 0 2 -29 24 -65 47 -36 23 -65 45 -65 47 0 3 9 21 21 39 23 38 22 39 118
-25 52 -34 53 -35 68 -16 39 53 41 50 -82 130 -64 41 -118 75 -120 75 -3 0
-40 -53 -82 -117z"/>
<path d="M1305 4499 c-27 -18 -52 -33 -53 -35 -8 -7 122 -454 132 -454 6 0 28
11 48 25 l36 24 -14 47 c-8 26 -14 53 -14 60 0 6 23 26 50 44 l50 32 44 -36
c25 -20 48 -36 53 -36 4 0 27 13 50 28 l43 28 -180 152 c-98 84 -183 152 -187
152 -4 0 -30 -14 -58 -31z m166 -203 c-5 -6 -23 -19 -39 -28 l-29 -17 -22 72
c-12 40 -25 79 -28 86 -3 8 24 -11 60 -44 44 -38 64 -62 58 -69z"/>
<path d="M2375 4269 c-414 -43 -829 -257 -1102 -569 -409 -467 -538 -1114
-336 -1694 286 -823 1150 -1305 1993 -1112 924 212 1505 1130 1296 2046 -195
849 -988 1419 -1851 1329z m440 -125 c222 -36 482 -143 670 -276 117 -83 293
-259 377 -378 338 -477 388 -1106 128 -1632 -217 -440 -618 -754 -1097 -858
-785 -171 -1585 279 -1851 1041 -113 322 -115 699 -5 1028 249 747 1000 1201
1778 1075z"/>
<path d="M2315 3944 c-92 -22 -119 -30 -185 -57 -41 -17 -96 -44 -122 -60
l-46 -31 23 -63 c13 -36 26 -67 29 -70 3 -4 27 4 54 16 114 53 235 65 302 31
51 -26 65 -67 56 -171 -6 -74 -5 -78 19 -97 l25 -20 0 -216 c0 -248 7 -236
-90 -149 -56 51 -89 109 -90 158 0 23 9 37 36 59 81 64 98 192 35 255 -19 19
-19 19 15 52 37 35 36 52 -2 43 -18 -5 -24 -2 -24 10 0 9 -4 16 -10 16 -5 0
-10 -10 -10 -22 0 -53 -10 -65 -49 -65 -71 0 -106 -38 -153 -167 -46 -129 -51
-148 -45 -207 10 -110 89 -227 223 -328 l62 -47 -19 -26 c-72 -98 -62 -252 23
-369 20 -27 28 -47 22 -54 -110 -146 -120 -244 -41 -376 l33 -56 -28 -34 c-30
-35 -58 -113 -58 -159 0 -53 32 -132 79 -193 38 -51 47 -70 44 -93 -5 -33 34
-138 95 -261 l39 -76 45 84 c86 159 115 248 88 275 -7 7 3 24 30 54 103 112
116 239 36 359 -34 50 -34 50 -14 68 34 30 70 114 75 172 6 69 -22 150 -71
207 l-34 39 28 40 c44 66 65 133 65 210 -1 59 -6 79 -33 129 -18 33 -29 63
-25 66 5 4 35 27 69 53 199 150 262 305 200 497 -61 186 -105 232 -198 206
-27 -8 -28 -7 -28 33 0 30 -4 41 -15 41 -8 0 -15 -7 -15 -15 0 -11 -7 -14 -25
-9 -36 9 -33 -19 5 -46 34 -24 37 -40 13 -76 -25 -39 -21 -104 11 -158 14 -25
35 -50 46 -56 15 -8 20 -21 20 -54 0 -55 -43 -121 -119 -183 l-56 -46 -3 219
c-2 211 -2 219 18 234 19 14 21 25 18 104 -3 77 -1 89 16 102 52 38 241 2 456
-86 69 -28 133 -54 143 -57 15 -5 17 3 17 84 l0 89 -137 59 c-164 70 -367 137
-501 165 -92 20 -323 35 -367 24z"/>
<path d="M3413 3089 c-27 -10 -40 -34 -49 -87 -6 -38 -9 -41 -46 -47 -29 -5
-44 -15 -56 -35 l-16 -27 -41 18 c-22 10 -70 21 -106 25 -61 6 -67 5 -81 -15
-22 -31 -15 -49 48 -121 30 -34 53 -67 51 -74 -2 -6 -29 -14 -60 -18 -95 -12
-112 -30 -83 -86 20 -38 54 -68 103 -89 l42 -18 -55 -63 c-59 -70 -67 -99 -33
-133 18 -18 30 -21 76 -17 50 4 56 3 63 -18 5 -12 19 -29 31 -38 l23 -16 -23
-64 c-27 -78 -25 -110 8 -114 43 -6 107 19 162 64 30 24 58 43 64 41 5 -2 16
-27 25 -55 8 -28 23 -59 32 -68 16 -16 18 -16 42 0 32 20 53 60 67 126 6 27
15 50 21 50 5 0 38 -24 73 -54 68 -57 116 -76 140 -56 21 18 19 53 -12 147
-15 45 -24 85 -20 89 4 4 33 9 64 11 127 8 203 36 203 76 0 40 -28 65 -99 88
l-69 22 39 37 c22 20 39 45 39 54 0 30 -45 64 -94 71 -25 4 -46 9 -46 12 0 3
16 32 37 64 32 52 35 62 24 85 -11 24 -14 25 -66 19 l-54 -7 6 50 c18 152 -38
169 -157 48 -30 -31 -59 -56 -65 -56 -6 0 -22 26 -35 58 -46 113 -70 139 -117
121z"/>
<path d="M1457 3054 c-4 -4 -7 -74 -7 -155 l0 -148 -152 -3 -153 -3 0 -170 0
-170 153 -3 152 -3 0 -154 0 -155 175 0 175 0 0 155 0 155 155 0 155 0 -2 173
-3 172 -152 3 -152 3 -3 152 -3 152 -166 3 c-91 1 -168 -1 -172 -4z"/>
<path d="M915 4161 c-41 -18 -141 -116 -164 -160 -11 -20 -10 -26 5 -41 62
-60 310 -280 315 -280 4 0 34 30 68 66 77 84 105 141 98 196 -10 74 -92 127
-153 99 -23 -10 -24 -9 -24 33 0 33 -6 49 -26 70 -15 14 -32 26 -40 26 -7 0
-18 2 -26 5 -7 2 -31 -4 -53 -14z m64 -113 c10 -28 5 -48 -22 -81 l-22 -26
-39 35 -40 34 29 30 c36 37 82 41 94 8z m145 -114 c9 -8 16 -25 16 -36 0 -26
-38 -88 -54 -88 -6 0 -29 18 -51 40 l-39 40 29 30 c32 34 74 40 99 14z"/>
<path d="M4000 4059 c-113 -54 -209 -100 -215 -102 -5 -3 8 -23 29 -45 l40
-41 51 29 52 30 24 -28 c67 -74 65 -65 30 -125 l-30 -53 39 -39 c22 -21 41
-37 43 -34 11 12 237 401 237 407 0 4 -21 28 -47 53 l-48 46 -205 -98z m143
-81 c-25 -40 -47 -74 -48 -75 -1 -2 -16 13 -34 31 l-33 34 74 40 c40 22 76 40
80 41 4 0 -13 -32 -39 -71z"/>
<path d="M624 3554 c-57 -28 -79 -96 -49 -154 21 -42 53 -60 103 -60 37 0 50
6 78 34 26 26 34 42 34 70 0 96 -83 151 -166 110z"/>
<path d="M4360 3548 c-69 -47 -71 -134 -5 -186 87 -69 214 29 171 131 -30 72
-104 97 -166 55z"/>
<path d="M4748 3093 c-32 -5 -33 -13 -14 -120 l13 -71 -30 -6 c-72 -15 -73
-13 -87 74 l-13 80 -36 -6 c-20 -4 -39 -9 -43 -13 -4 -4 -2 -41 6 -83 13 -75
12 -77 -8 -82 -61 -16 -68 -10 -80 69 -16 99 -14 96 -54 89 -21 -3 -40 -9 -44
-13 -5 -5 20 -182 37 -257 5 -21 5 -21 225 16 121 20 223 39 226 43 3 3 -5 67
-18 144 -25 146 -25 145 -80 136z"/>
<path d="M306 3074 c-3 -9 -6 -30 -6 -48 l0 -33 98 -16 c53 -10 118 -20 145
-23 53 -7 74 -24 30 -24 -32 0 -275 -39 -281 -44 -2 -3 -6 -22 -9 -43 l-5 -38
151 -65 c82 -35 149 -66 147 -68 -2 -2 -73 1 -157 7 -84 6 -154 9 -155 8 -1
-1 -4 -24 -5 -52 l-4 -50 225 -12 c124 -6 226 -11 226 -10 1 1 5 32 9 69 l7
67 -58 26 c-33 15 -99 43 -149 63 l-90 37 65 6 c36 4 106 15 157 24 l92 17 6
46 c3 26 7 57 9 69 2 14 -3 24 -13 27 -21 6 -406 76 -419 76 -5 0 -13 -7 -16
-16z"/>
<path d="M4406 2553 c-12 -73 -19 -69 127 -82 160 -15 202 -25 222 -54 33 -48
5 -108 -58 -119 -15 -3 -80 1 -145 8 -179 20 -168 22 -176 -33 -4 -29 -2 -49
4 -53 19 -12 295 -33 336 -27 129 21 187 201 98 306 -35 42 -90 59 -247 76
-77 8 -142 15 -147 15 -4 0 -10 -17 -14 -37z"/>
<path d="M441 2373 c-63 -22 -125 -87 -140 -147 -16 -63 0 -140 39 -194 69
-96 225 -111 343 -34 60 40 82 85 82 168 0 61 -4 77 -30 120 -56 92 -178 128
-294 87z m184 -107 c40 -17 55 -42 55 -90 0 -63 -79 -116 -175 -116 -106 0
-161 90 -97 160 48 54 147 75 217 46z"/>
<path d="M4321 2047 c-30 -49 -53 -145 -45 -192 15 -91 78 -163 168 -190 71
-21 115 -19 173 10 72 36 117 107 137 217 7 40 11 37 -66 53 -14 2 -18 -4 -18
-23 -1 -35 -32 -104 -60 -130 -49 -45 -145 -34 -206 24 -30 27 -34 38 -34 81
0 34 8 65 24 95 l24 46 -29 21 c-38 28 -44 27 -68 -12z"/>
<path d="M702 1811 c-147 -75 -197 -116 -213 -173 -19 -73 36 -189 106 -222
62 -30 117 -18 275 59 77 38 140 71 140 74 0 2 -11 24 -25 47 l-25 43 -141
-69 c-78 -39 -152 -70 -166 -70 -33 0 -73 42 -73 78 0 40 35 69 175 141 66 35
122 64 124 67 6 5 -29 94 -37 94 -4 -1 -67 -31 -140 -69z"/>
<path d="M4105 1605 c-94 -95 -101 -226 -13 -271 46 -24 104 -14 177 31 54 33
64 37 86 27 43 -20 33 -58 -28 -117 l-54 -52 29 -32 c23 -25 32 -30 46 -22 29
16 93 90 108 127 34 81 5 172 -63 200 -47 20 -86 12 -154 -31 -62 -39 -104
-45 -114 -15 -8 25 16 71 55 103 l30 26 -26 30 c-14 17 -30 31 -35 31 -4 0
-24 -16 -44 -35z"/>
<path d="M916 1273 l-167 -147 35 -34 35 -35 101 89 c56 49 111 96 123 104 19
14 19 13 10 -5 -6 -11 -34 -90 -62 -175 l-51 -155 40 -39 39 -40 68 65 c37 35
113 106 167 157 l99 94 -35 34 -34 35 -109 -103 c-60 -57 -105 -94 -100 -83
20 47 95 280 95 295 0 14 -68 90 -82 90 -3 0 -80 -66 -172 -147z"/>
<path d="M3781 1213 l-101 -98 152 -162 c84 -89 158 -161 164 -160 7 1 57 45
112 98 l100 97 -32 31 -32 31 -64 -65 -64 -65 -38 37 -38 37 60 61 60 61 -29
28 -30 29 -56 -52 c-31 -28 -60 -51 -64 -51 -4 0 -20 13 -35 29 l-27 28 63 61
63 61 -31 31 -31 31 -102 -98z"/>
<path d="M1411 1045 l-20 -35 54 -31 54 -30 -90 -154 c-49 -85 -89 -158 -89
-163 0 -8 70 -52 83 -52 3 0 44 67 92 150 48 82 91 152 95 155 5 3 31 -8 59
-24 l50 -30 20 35 c12 19 21 38 21 42 -1 8 -285 172 -299 172 -5 0 -18 -16
-30 -35z"/>
<path d="M3450 967 c-43 -18 -121 -64 -159 -93 -4 -4 209 -394 215 -394 14 0
84 42 84 51 0 5 -18 41 -39 79 l-40 70 29 15 c16 8 34 15 40 15 7 0 40 -27 74
-60 l63 -60 46 26 47 25 -69 70 c-44 43 -77 69 -91 69 -17 0 -21 4 -15 18 16
39 17 90 2 118 -37 72 -98 89 -187 51z m90 -92 c29 -35 11 -84 -40 -110 -27
-14 -28 -13 -55 37 l-28 51 23 19 c27 22 83 24 100 3z"/>
<path d="M1887 818 c-13 -18 -74 -107 -136 -198 l-112 -165 52 -17 c29 -10 53
-17 54 -15 1 1 15 22 30 47 15 25 29 46 30 48 2 2 31 -4 64 -14 l61 -17 0 -63
0 -63 41 -11 c22 -6 47 -14 55 -17 12 -4 14 30 14 235 l0 240 -52 18 c-29 9
-58 19 -64 21 -7 2 -23 -11 -37 -29z m49 -245 c-6 -6 -87 19 -84 26 2 4 21 35
43 71 l40 64 3 -78 c2 -43 1 -80 -2 -83z"/>
<path d="M2885 751 c-39 -6 -40 -7 -37 -41 6 -81 24 -226 29 -245 3 -11 -23
23 -59 75 -35 52 -79 116 -98 142 l-35 48 -55 -6 c-30 -4 -57 -8 -59 -10 -4
-3 17 -446 21 -449 2 -1 25 0 52 3 l49 4 -7 122 c-4 66 -9 141 -12 166 -4 37
-3 41 6 25 7 -11 53 -82 103 -158 l92 -137 55 6 c30 4 56 8 58 9 3 3 -34 367
-44 423 -3 17 -8 31 -12 31 -4 -1 -25 -5 -47 -8z"/>
<path d="M2284 736 c-2 -6 -14 -108 -27 -227 l-23 -217 49 -6 c27 -4 51 -5 53
-3 5 4 55 449 52 452 -2 1 -25 5 -51 8 -32 3 -50 1 -53 -7z"/>
</g>
</svg>
